<svg width="337" height="225" viewBox="0 0 337 225" fill="none" xmlns="http://www.w3.org/2000/svg">
<path d="M92.8171 99.8653C92.9967 100.636 92.754 101.891 92.0892 103.628C91.4244 105.366 90.7693 106.503 90.1239 107.038C89.8465 107.317 88.9232 107.853 87.3539 108.646C82.83 110.897 77.2193 113.167 70.5219 115.454C67.1481 116.582 63.999 117.572 61.0744 118.424C58.1498 119.276 55.4092 120 52.8526 120.596C53.0089 122.185 53.159 123.84 53.303 125.56C53.4876 127.271 53.6722 128.982 53.8568 130.694C54.0414 132.405 54.201 134.1 54.3355 135.78C54.5012 137.41 54.6636 138.934 54.8226 140.351C55.1501 143.227 55.4781 146.38 55.8067 149.812C56.1664 153.194 56.5462 157.212 56.946 161.868C57.2401 166.805 57.1735 170.927 56.7461 174.236C56.1341 178.956 54.7359 183.239 52.5512 187.084C50.395 191.052 47.4096 193.48 43.595 194.368C42.4181 194.642 40.9845 194.549 39.294 194.087C37.6535 193.656 36.6915 192.832 36.4079 191.614C36.2851 191.087 36.24 190.434 36.2728 189.656C36.265 188.888 36.3431 188.121 36.5071 187.356C36.6805 186.631 36.9337 185.973 37.2667 185.382C37.5685 184.841 37.9832 184.509 38.5108 184.386C39.1601 184.235 40.1218 184.14 41.3959 184.1C42.67 184.059 43.6317 183.964 44.281 183.813C45.1132 182.977 45.7655 182.012 46.238 180.918C46.7511 179.815 47.1296 178.593 47.3737 177.253C47.6177 175.912 47.7569 174.49 47.7913 172.984C47.8663 171.469 47.8663 169.908 47.7912 168.3C47.6789 165.245 47.5387 162.348 47.3708 159.606C47.2435 156.855 47.0789 154.219 46.877 151.699C46.6657 149.139 46.428 146.649 46.1639 144.229C45.8998 141.809 45.6107 139.374 45.2966 136.923C45.1659 135.627 44.9516 133.88 44.6536 131.682C44.4056 129.515 44.0926 127.62 43.7145 125.997C43.6539 125.369 43.3437 124.864 42.7839 124.481C42.2147 124.057 41.5893 123.668 40.9077 123.313C40.2668 122.949 39.6664 122.576 39.1066 122.193C38.5779 121.76 38.2833 121.229 38.2227 120.602C38.0526 119.871 38.7418 117.871 40.2905 114.601C41.8892 111.363 42.6213 108.903 42.4867 107.223C42.46 106.374 42.3814 105.301 42.2507 104.005C42.1512 102.66 42.045 101.101 41.9321 99.3309C41.6657 95.7993 41.5006 92.8858 41.4366 90.5905C41.4038 88.2451 41.5346 85.7761 41.8292 83.1834C42.1238 80.5906 42.6185 78.1224 43.3133 75.7787C44.4306 72.3099 46.1525 68.9569 48.4788 65.7199C50.8052 62.4828 53.4496 60.5193 56.412 59.8294C59.4555 59.1205 62.3282 59.6066 65.0299 61.2876C67.7533 62.878 69.4788 65.2355 70.2066 68.3602C71.1233 72.2966 70.6156 76.8213 68.6834 81.9346C67.5839 84.9287 66.3037 86.5958 64.8428 86.9361L64.5993 86.9928C64.6682 83.982 64.334 80.894 63.5968 77.7287C63.0676 75.4562 62.2042 73.2187 61.0067 71.0162C59.831 68.7232 58.5126 67.7468 57.0517 68.087C55.3068 68.4934 53.9259 69.8204 52.9092 72.0679C51.8831 74.2748 51.1226 76.6124 50.6279 79.0806C49.9665 82.4861 49.6475 86.9027 49.6709 92.3306C49.6982 95.0195 49.7689 97.5271 49.8829 99.8536C50.0375 102.171 50.2604 104.322 50.5518 106.308L51.1613 108.925C51.5488 110.589 53.7716 110.948 57.8297 110.003C61.2385 109.209 64.3584 108.461 67.1896 107.759C70.052 107.007 72.6816 106.266 75.0787 105.537C77.4757 104.807 79.9147 103.983 82.3957 103.062C84.8766 102.142 87.3901 101.086 89.9361 99.8945C90.2513 99.7783 90.5713 99.6824 90.8959 99.6068C91.2111 99.4906 91.5513 99.39 91.9165 99.3049C92.4035 99.1915 92.7037 99.3783 92.8171 99.8653ZM133.829 96.8592C134.132 98.1578 134.359 99.4097 134.511 100.615C134.664 101.82 134.746 102.999 134.757 104.151C134.769 105.304 134.704 106.495 134.563 107.726C134.413 108.916 134.19 110.166 133.896 111.475C133.621 112.865 132.936 114.608 131.841 116.702C130.746 118.797 129.361 121.024 127.685 123.382C126.05 125.73 124.187 128.111 122.097 130.523C120.047 132.926 117.913 135.155 115.697 137.211C113.481 139.268 111.239 141.031 108.971 142.5C106.744 143.96 104.637 144.921 102.648 145.384C99.9294 146.017 97.4514 146.124 95.2145 145.704C92.9681 145.243 91.0052 144.438 89.3258 143.289C87.6369 142.099 86.2255 140.631 85.0914 138.885C83.9979 137.129 83.2243 135.277 82.7707 133.329C82.4682 132.03 82.2856 130.511 82.2227 128.772C82.1599 127.032 82.1843 125.208 82.296 123.3C82.4077 121.392 82.6114 119.419 82.9071 117.382C83.2028 115.345 83.558 113.38 83.9727 111.487C84.3873 109.593 84.8506 107.817 85.3626 106.158C85.8745 104.498 86.4182 103.067 86.9935 101.863C87.998 99.7469 89.296 97.605 90.8875 95.4375C92.5196 93.2606 94.3815 91.244 96.4733 89.3878C98.5557 87.491 100.862 85.8202 103.392 84.3754C105.962 82.9211 108.708 81.8537 111.63 81.1732C113.821 80.6629 116.1 80.7098 118.465 81.314C120.821 81.8777 123.023 82.8835 125.072 84.3316C127.161 85.7703 128.992 87.5686 130.564 89.7265C132.136 91.8845 133.224 94.2621 133.829 96.8592ZM124.744 100.836C123.809 96.8186 121.92 93.9429 119.077 92.2091C116.276 90.4659 112.724 90.0952 108.422 91.097C106.962 91.4372 105.57 92.1677 104.248 93.2884C102.926 94.4092 101.708 95.6983 100.593 97.1559C99.4776 98.6135 98.4829 100.129 97.6085 101.701C96.7652 103.224 96.0762 104.582 95.5414 105.776C95.0161 107.011 94.4994 108.65 93.9914 110.694C93.4739 112.697 93.03 114.832 92.6598 117.1C92.3208 119.318 92.1082 121.528 92.0221 123.73C91.9671 125.882 92.1192 127.729 92.4783 129.271C92.6957 130.204 93.1004 131.116 93.6924 132.004C94.275 132.853 94.9808 133.587 95.8096 134.207C96.6696 134.776 97.623 135.196 98.6698 135.466C99.7165 135.735 100.808 135.738 101.944 135.473C103.162 135.19 104.639 134.46 106.376 133.286C108.154 132.102 109.972 130.63 111.829 128.871C113.718 127.062 115.555 125.03 117.34 122.775C119.116 120.479 120.635 118.093 121.898 115.617C123.202 113.132 124.137 110.625 124.703 108.097C125.269 105.57 125.283 103.149 124.744 100.836Z" fill="black"/>
<path d="M206.635 121.17C204.146 126.299 201.52 131.008 198.757 135.296C196.035 139.577 193.241 143.321 190.374 146.528C187.541 149.687 184.67 152.26 181.76 154.248C178.891 156.229 176.102 157.455 173.393 157.927C169.001 158.693 165.203 157.41 161.999 154.077C158.837 150.738 156.615 145.394 155.334 138.047C154.618 133.942 154.077 129.384 153.711 124.372C153.344 119.361 153.111 114.263 153.01 109.078C152.91 103.893 152.906 98.7759 152.998 93.7266C153.131 88.6702 153.34 84.0448 153.623 79.8504C153.825 76.643 154.099 73.8461 154.444 71.4596C154.83 69.066 155.329 67.0757 155.941 65.4888C156.552 63.9018 157.29 62.6735 158.153 61.8039C159.058 60.9272 160.146 60.3779 161.419 60.156C162.24 60.0128 163.011 60.0687 163.732 60.3236C164.494 60.5713 165.172 60.9396 165.764 61.4284C166.357 61.9171 166.845 62.53 167.227 63.2669C167.643 63.9557 167.919 64.69 168.055 65.4699C168.184 66.2087 168.154 67.2502 167.966 68.5942C167.811 69.8901 167.558 71.351 167.207 72.9772C166.897 74.5961 166.54 76.3079 166.136 78.1125C165.732 79.9172 165.337 81.6566 164.952 83.3309C164.56 84.9642 164.212 86.4841 163.908 87.8907C163.644 89.2901 163.481 90.4182 163.419 91.2749C163.269 94.0503 163.197 97.2773 163.204 100.956C163.204 104.593 163.27 108.367 163.402 112.278C163.568 116.14 163.816 119.988 164.146 123.821C164.469 127.614 164.903 131.07 165.447 134.19C165.926 136.94 166.57 139.175 167.377 140.895C168.178 142.574 169.04 143.883 169.965 144.821C170.924 145.712 171.874 146.307 172.815 146.608C173.789 146.861 174.666 146.92 175.446 146.784C176.883 146.533 178.399 145.888 179.994 144.849C181.582 143.768 183.202 142.386 184.854 140.702C186.547 139.011 188.242 137.088 189.938 134.931C191.668 132.726 193.373 130.377 195.054 127.885C196.734 125.392 198.376 122.801 199.979 120.111C201.575 117.379 203.085 114.641 204.51 111.898C205.043 110.832 205.472 110.017 205.797 109.453C206.121 108.889 206.468 108.574 206.838 108.51C207.289 108.431 207.664 108.641 207.963 109.138C208.295 109.588 208.532 110.223 208.676 111.044C208.79 111.701 208.816 112.458 208.754 113.315C208.685 114.13 208.561 114.998 208.383 115.917C208.198 116.795 207.951 117.684 207.643 118.584C207.335 119.483 206.999 120.346 206.635 121.17ZM250.308 121.675C250.416 122.291 250.309 123.134 249.988 124.205C249.708 125.269 249.221 126.475 248.525 127.823C247.871 129.164 247.022 130.602 245.979 132.137C244.969 133.624 243.785 135.079 242.425 136.5C241.678 137.307 240.685 138.284 239.447 139.43C238.25 140.569 236.82 141.707 235.157 142.843C233.528 143.931 231.693 144.927 229.651 145.833C227.617 146.78 225.368 147.468 222.906 147.898C220.032 148.399 217.449 148.257 215.155 147.473C212.861 146.689 210.876 145.491 209.199 143.88C207.515 142.228 206.141 140.289 205.076 138.064C204.004 135.798 203.257 133.454 202.835 131.032C202.32 128.077 201.984 124.942 201.829 121.628C201.716 118.306 201.678 115.183 201.718 112.258C201.751 109.291 201.81 106.722 201.897 104.55C201.983 102.378 201.969 100.963 201.855 100.306C201.719 99.5265 201.626 98.6333 201.578 97.6267C201.57 96.6129 201.676 95.6428 201.895 94.7164C202.114 93.79 202.481 92.9858 202.997 92.3037C203.553 91.6146 204.304 91.1877 205.248 91.023C206.397 90.8226 207.39 90.8186 208.227 91.011C209.099 91.1551 209.82 91.41 210.391 91.7757C211.003 92.1341 211.476 92.5382 211.808 92.9878C212.14 93.4374 212.342 93.8675 212.413 94.2779C212.628 95.5094 212.583 97.188 212.277 99.3138C212.004 101.391 211.7 103.771 211.364 106.452C211.069 109.125 210.858 112.038 210.731 115.19C210.638 118.294 210.881 121.508 211.461 124.833C211.747 126.475 212.133 128.205 212.62 130.024C213.14 131.794 213.82 133.389 214.659 134.807C215.54 136.219 216.644 137.337 217.972 138.163C219.294 138.948 220.939 139.168 222.91 138.825C224.551 138.538 226.191 137.998 227.83 137.205C229.501 136.364 231.09 135.41 232.596 134.344C234.095 133.237 235.48 132.086 236.752 130.891C238.024 129.696 239.123 128.596 240.047 127.589C240.964 126.54 241.789 125.572 242.522 124.683C243.289 123.745 243.992 122.925 244.63 122.221C245.269 121.518 245.847 120.952 246.364 120.523C246.875 120.054 247.355 119.779 247.807 119.701C248.751 119.536 249.369 119.682 249.66 120.139C249.992 120.589 250.208 121.101 250.308 121.675ZM217.416 57.116C217.488 57.5265 217.51 58.136 217.481 58.9445C217.453 59.7531 217.374 60.6339 217.244 61.5871C217.156 62.533 217.026 63.4862 216.855 64.4465C216.677 65.3657 216.498 66.1583 216.318 66.8241C216.138 67.4899 215.766 68.1469 215.202 68.795C214.631 69.4021 213.988 69.9584 213.273 70.4638C212.557 70.9692 211.827 71.3925 211.083 71.7338C210.339 72.075 209.721 72.2886 209.228 72.3745C208.859 72.4389 208.554 72.3864 208.313 72.2169C208.072 72.0475 207.861 71.8093 207.681 71.5024C207.541 71.1883 207.415 70.8297 207.303 70.4263C207.19 70.023 207.081 69.6402 206.975 69.278L206.335 67.423C206.188 67.0678 206.011 66.7815 205.804 66.5638C205.631 66.298 205.434 66.0152 205.212 65.7154C204.991 65.4157 204.779 65.0508 204.577 64.6207C204.368 64.1496 204.196 63.5241 204.06 62.7442C203.945 62.0875 204.025 61.3334 204.3 60.4819C204.608 59.5822 205.074 58.7396 205.699 57.954C206.316 57.1273 207.078 56.4023 207.984 55.779C208.924 55.1075 209.99 54.668 211.18 54.4604C211.467 54.4103 211.94 54.4547 212.599 54.5936C213.291 54.6843 213.978 54.8607 214.658 55.1228C215.331 55.3438 215.933 55.6407 216.463 56.0135C217.027 56.338 217.345 56.7056 217.416 57.116Z" fill="black"/>
<path d="M307.337 102.208C307.66 103.502 307.906 104.75 308.078 105.953C308.249 107.155 308.349 108.333 308.379 109.485C308.408 110.637 308.362 111.829 308.24 113.062C308.108 114.254 307.905 115.507 307.632 116.821C307.378 118.215 306.72 119.968 305.658 122.08C304.596 124.191 303.245 126.439 301.607 128.823C300.009 131.197 298.183 133.606 296.131 136.051C294.118 138.485 292.02 140.747 289.836 142.838C287.652 144.929 285.438 146.726 283.193 148.231C280.99 149.725 278.897 150.719 276.916 151.213C274.207 151.889 271.731 152.034 269.488 151.649C267.235 151.223 265.26 150.449 263.563 149.326C261.855 148.163 260.421 146.717 259.26 144.988C258.139 143.249 257.337 141.41 256.853 139.469C256.53 138.175 256.324 136.659 256.234 134.921C256.144 133.183 256.14 131.359 256.222 129.449C256.304 127.539 256.477 125.564 256.741 123.522C257.005 121.481 257.329 119.511 257.714 117.611C258.099 115.711 258.535 113.928 259.021 112.261C259.507 110.594 260.028 109.154 260.585 107.942C261.556 105.81 262.821 103.648 264.378 101.456C265.976 99.2538 267.806 97.2085 269.869 95.3199C271.922 93.3909 274.201 91.6843 276.708 90.2002C279.256 88.7061 281.985 87.596 284.896 86.8701C287.079 86.3256 289.358 86.337 291.732 86.9043C294.097 87.4311 296.314 88.4025 298.385 89.8185C300.497 91.2244 302.355 92.994 303.961 95.1272C305.566 97.2604 306.692 99.6207 307.337 102.208ZM298.315 106.326C297.317 102.324 295.383 99.4778 292.514 97.7885C289.686 96.0892 286.129 95.7738 281.843 96.8426C280.388 97.2056 279.008 97.9577 277.704 99.0988C276.4 100.24 275.201 101.548 274.109 103.023C273.017 104.498 272.046 106.028 271.196 107.614C270.377 109.15 269.709 110.519 269.193 111.721C268.687 112.964 268.196 114.611 267.72 116.662C267.233 118.673 266.823 120.815 266.488 123.088C266.184 125.311 266.005 127.524 265.954 129.727C265.932 131.88 266.113 133.724 266.496 135.261C266.728 136.19 267.147 137.095 267.753 137.975C268.349 138.814 269.066 139.537 269.904 140.144C270.773 140.7 271.733 141.105 272.783 141.358C273.834 141.611 274.926 141.597 276.058 141.314C277.271 141.012 278.736 140.26 280.455 139.058C282.214 137.846 284.009 136.347 285.839 134.559C287.699 132.721 289.504 130.66 291.254 128.378C292.993 126.054 294.475 123.645 295.7 121.15C296.964 118.644 297.86 116.123 298.387 113.587C298.914 111.051 298.89 108.63 298.315 106.326Z" fill="black"/>
</svg>
